<svg width="1920" height="1080" viewBox="0 0 1920 1080" fill="none" xmlns="http://www.w3.org/2000/svg">
<g clip-path="url(#clip0_24_17)">
<rect width="1920" height="1080" fill="url(#paint0_linear_24_17)"/>
<path fill-rule="evenodd" clip-rule="evenodd" d="M-1032 -9L-949.022 81.1007C-864.478 171.201 -698.522 350.233 -531 406.399C-363.478 462.566 -197.522 395.868 -30 350.233C137.522 305.767 303.478 263.267 471 285.5C638.522 307.733 804.478 395.868 972 395.868C1139.52 395.868 1305.48 350.233 1473 350.233C1640.52 350.233 1806.48 395.868 1891.02 428.632L1974 462.566V665H1891.02C1806.48 665 1640.52 665 1473 665C1305.48 665 1139.52 665 972 665C804.478 665 638.522 665 471 665C303.478 665 137.522 665 -30 665C-197.522 665 -363.478 665 -531 665C-698.522 665 -864.478 665 -949.022 665H-1032V-9Z" fill="url(#paint1_linear_24_17)" style="mix-blend-mode:overlay"/>
<path fill-rule="evenodd" clip-rule="evenodd" d="M-904 -9L-810.192 77.2916C-717.5 163.583 -531 336.166 -344.5 353.425C-158 370.683 28.5 232.616 215 232.616C401.5 232.616 588 370.683 774.5 387.941C961 405.2 1147.5 301.65 1334 301.65C1520.5 301.65 1707 405.2 1893.5 475.384C2080 544.417 2266.5 578.933 2360.31 596.192L2453 613.45V717H2360.31C2266.5 717 2080 717 1893.5 717C1707 717 1520.5 717 1334 717C1147.5 717 961 717 774.5 717C588 717 401.5 717 215 717C28.5 717 -158 717 -344.5 717C-531 717 -717.5 717 -810.192 717H-904V-9Z" fill="url(#paint2_linear_24_17)" style="mix-blend-mode:overlay"/>
<path fill-rule="evenodd" clip-rule="evenodd" d="M-776 227L-687.585 282.864C-600.222 338.727 -424.444 450.455 -248.667 461.628C-72.8889 472.8 102.889 383.418 278.667 383.418C454.444 383.418 630.222 472.8 806 483.973C981.778 495.146 1157.56 428.109 1333.33 428.109C1509.11 428.109 1684.89 495.146 1860.67 540.582C2036.44 585.273 2236.43 580.438 2324.85 591.611L2388 629.964V697H2300.64C2212.22 697 2036.44 697 1860.67 697C1684.89 697 1509.11 697 1333.33 697C1157.56 697 981.778 697 806 697C630.222 697 454.444 697 278.667 697C102.889 697 -72.8889 697 -248.667 697C-424.444 697 -600.222 697 -687.585 697H-776V227Z" fill="url(#paint3_linear_24_17)" style="mix-blend-mode:overlay"/>
<path fill-rule="evenodd" clip-rule="evenodd" d="M-884 -237L-802.374 -60.9427C-719.209 115.115 -555.958 464.943 -391.167 574.693C-226.376 684.443 -154.609 679.241 10.1826 590.069C174.974 503.184 316.092 528.057 480.883 571.5C645.674 614.943 820.237 556 985.029 556C1149.82 556 1321.92 503 1486.72 503C1651.51 503 1929.34 660.479 2012.5 724.5L2073 762V1080H1991.37C1908.21 1080 1744.96 1080 1580.17 1080C1415.38 1080 1252.12 1080 1087.33 1080C922.542 1080 759.291 1080 594.5 1080C429.709 1080 266.458 1080 101.667 1080C-63.1245 1080 -226.376 1080 -391.167 1080C-555.958 1080 -719.209 1080 -802.374 1080H-884V-237Z" fill="url(#paint4_linear_24_17)"/>
</g>
<defs>
<linearGradient id="paint0_linear_24_17" x1="960" y1="0" x2="960" y2="1080" gradientUnits="userSpaceOnUse">
<stop stop-color="#115E59"/>
<stop offset="0.769055" stop-color="#22C55E"/>
</linearGradient>
<linearGradient id="paint1_linear_24_17" x1="471" y1="138" x2="471" y2="471" gradientUnits="userSpaceOnUse">
<stop stop-color="white"/>
<stop offset="0.861264" stop-color="white" stop-opacity="0"/>
</linearGradient>
<linearGradient id="paint2_linear_24_17" x1="774.5" y1="204.097" x2="774.5" y2="608.247" gradientUnits="userSpaceOnUse">
<stop stop-opacity="0"/>
<stop offset="1" stop-opacity="0.7"/>
</linearGradient>
<linearGradient id="paint3_linear_24_17" x1="806" y1="364.955" x2="806" y2="626.595" gradientUnits="userSpaceOnUse">
<stop stop-opacity="0"/>
<stop offset="1" stop-opacity="0.7"/>
</linearGradient>
<linearGradient id="paint4_linear_24_17" x1="595" y1="456" x2="595.125" y2="1034.5" gradientUnits="userSpaceOnUse">
<stop stop-color="#0F172A"/>
<stop offset="0.953874" stop-color="#64748B"/>
</linearGradient>
<clipPath id="clip0_24_17">
<rect width="1920" height="1080" fill="white"/>
</clipPath>
</defs>
</svg>
