<svg width="1920" height="1080" viewBox="0 0 1920 1080" fill="none" xmlns="http://www.w3.org/2000/svg">
<g clip-path="url(#clip0_24_2)">
<rect width="1920" height="1080" fill="url(#paint0_linear_24_2)"/>
<path fill-rule="evenodd" clip-rule="evenodd" d="M-1032 -9L-949.022 81.1007C-864.478 171.201 -698.522 350.233 -531 406.399C-363.478 462.566 -197.522 395.868 -30 350.233C137.522 305.767 303.478 263.267 471 285.5C638.522 307.733 804.478 395.868 972 395.868C1139.52 395.868 1305.48 350.233 1473 350.233C1640.52 350.233 1806.48 395.868 1891.02 428.632L1974 462.566V665H1891.02C1806.48 665 1640.52 665 1473 665C1305.48 665 1139.52 665 972 665C804.478 665 638.522 665 471 665C303.478 665 137.522 665 -30 665C-197.522 665 -363.478 665 -531 665C-698.522 665 -864.478 665 -949.022 665H-1032V-9Z" fill="url(#paint1_linear_24_2)" style="mix-blend-mode:overlay"/>
<path fill-rule="evenodd" clip-rule="evenodd" d="M-904 -9L-810.192 86.8003C-717.5 182.601 -531 374.201 -344.5 393.361C-158 412.521 28.5 259.241 215 259.241C401.5 259.241 588 412.521 774.5 431.681C961 450.842 1147.5 335.881 1334 335.881C1520.5 335.881 1707 450.842 1893.5 528.759C2080 605.399 2266.5 643.719 2360.31 662.88L2453 682.04V797H2360.31C2266.5 797 2080 797 1893.5 797C1707 797 1520.5 797 1334 797C1147.5 797 961 797 774.5 797C588 797 401.5 797 215 797C28.5 797 -158 797 -344.5 797C-531 797 -717.5 797 -810.192 797H-904V-9Z" fill="url(#paint2_linear_24_2)" style="mix-blend-mode:overlay"/>
<path fill-rule="evenodd" clip-rule="evenodd" d="M-789 195L-700.585 260.729C-613.222 326.458 -437.444 457.916 -261.667 471.062C-85.8889 484.208 89.8889 379.041 265.667 379.041C441.444 379.041 617.222 484.208 793 497.353C968.778 510.499 1144.56 431.624 1320.33 431.624C1496.11 431.624 1671.89 510.499 1847.67 563.959C2023.44 616.542 2223.43 610.854 2311.85 624L2375 669.125V748H2287.64C2199.22 748 2023.44 748 1847.67 748C1671.89 748 1496.11 748 1320.33 748C1144.56 748 968.778 748 793 748C617.222 748 441.444 748 265.667 748C89.8889 748 -85.8889 748 -261.667 748C-437.444 748 -613.222 748 -700.585 748H-789V195Z" fill="url(#paint3_linear_24_2)" style="mix-blend-mode:overlay"/>
<path fill-rule="evenodd" clip-rule="evenodd" d="M-1008 -227.5L-925.022 -51.4427C-840.478 124.615 -674.522 474.443 -507 584.193C-339.478 693.943 -266.522 688.741 -99 599.569C68.5219 512.684 211.978 537.557 379.5 581C547.022 624.443 724.478 565.5 892 565.5C1059.52 565.5 1234.48 512.5 1402 512.5C1569.52 512.5 1851.96 669.979 1936.5 734L1998 771.5V1089.5H1915.02C1830.48 1089.5 1664.52 1089.5 1497 1089.5C1329.48 1089.5 1163.52 1089.5 996 1089.5C828.478 1089.5 662.522 1089.5 495 1089.5C327.478 1089.5 161.522 1089.5 -6 1089.5C-173.522 1089.5 -339.478 1089.5 -507 1089.5C-674.522 1089.5 -840.478 1089.5 -925.022 1089.5H-1008V-227.5Z" fill="url(#paint4_linear_24_2)"/>
</g>
<defs>
<linearGradient id="paint0_linear_24_2" x1="960" y1="0" x2="960" y2="1080" gradientUnits="userSpaceOnUse">
<stop stop-color="#115E59"/>
<stop offset="0.769055" stop-color="#22C55E"/>
</linearGradient>
<linearGradient id="paint1_linear_24_2" x1="471" y1="138" x2="471" y2="471" gradientUnits="userSpaceOnUse">
<stop stop-color="white"/>
<stop offset="0.861264" stop-color="white" stop-opacity="0"/>
</linearGradient>
<linearGradient id="paint2_linear_24_2" x1="774.5" y1="227.579" x2="774.5" y2="676.263" gradientUnits="userSpaceOnUse">
<stop stop-opacity="0"/>
<stop offset="1" stop-opacity="0.7"/>
</linearGradient>
<linearGradient id="paint3_linear_24_2" x1="793" y1="357.318" x2="793" y2="665.162" gradientUnits="userSpaceOnUse">
<stop stop-opacity="0"/>
<stop offset="1" stop-opacity="0.7"/>
</linearGradient>
<linearGradient id="paint4_linear_24_2" x1="495" y1="523" x2="495" y2="1089" gradientUnits="userSpaceOnUse">
<stop stop-color="#CBD5E1"/>
<stop offset="0.866731" stop-color="#F8FAFC"/>
</linearGradient>
<clipPath id="clip0_24_2">
<rect width="1920" height="1080" fill="white"/>
</clipPath>
</defs>
</svg>
