<svg width="1920" height="1080" viewBox="0 0 1920 1080" fill="none" xmlns="http://www.w3.org/2000/svg">
<g clip-path="url(#clip0_17_9)">
<path fill-rule="evenodd" clip-rule="evenodd" d="M0 913.022L23 815.739C46 717.005 40 738.088 86 710.5C132 682.912 163 699.912 208 727.5C254 755.088 312.5 712.96 357.5 742C403.5 769.588 503 773.632 549 815.739C594 856.395 564.5 744.91 610.5 689.735C655.5 633.107 701.5 577.932 747.5 591C793.5 605.52 927 788.5 973 788.5C1019 788.5 1051 661.829 1097 564.547C1143 467.264 1189 355.462 1234 327.874C1280 298.834 1326 355.462 1371 410.637C1417 467.264 1463 522.439 1509 536.959C1554 550.027 1600 522.439 1646 507.92C1691 494.852 1737 494.852 1783 480.332C1829 467.264 1874 438.224 1897 425.157L1920 410.637V1080H1897C1874 1080 1829 1080 1783 1080C1737 1080 1691 1080 1646 1080C1600 1080 1554 1080 1509 1080C1463 1080 1417 1080 1371 1080C1326 1080 1280 1080 1234 1080C1189 1080 1143 1080 1097 1080C1051 1080 1006 1080 960 1080C914 1080 869 1080 823 1080C777 1080 731 1080 686 1080C640 1080 594 1080 549 1080C503 1080 457 1080 411 1080C366 1080 320 1080 274 1080C229 1080 183 1080 137 1080C91 1080 46 1080 23 1080H0V913.022Z" fill="url(#paint0_linear_17_9)"/>
<path d="M257 608C326.645 575.45 458.643 401.716 535.5 400C640.486 397.655 647.398 541.563 750.5 561.5C830.243 576.92 875.722 517.164 956 529.5C1186.46 564.912 1171 1086.5 1171 1086.5L858 1392L49.5 1287L-117.749 733.348C-140.159 739.235 -153.5 742.5 -153.5 742.5L-131.006 689.463L-153.5 615L3 373.5L-131.006 689.463L-117.749 733.348C-41.6681 713.365 138.946 663.175 257 608Z" fill="url(#paint1_linear_17_9)"/>
<path d="M427.034 643.745C210.495 720.042 284.046 206.301 35.1046 292.703C-213.837 379.106 -90.3951 1063.25 -90.3951 1063.25L480.011 1213.83C480.011 1213.83 924.38 1419.99 871.94 1174.79C819.5 929.601 643.572 567.448 427.034 643.745Z" fill="url(#paint2_linear_17_9)"/>
<path d="M1640.5 635C1813.84 568.715 1946 271 1946 271L2041.5 1026L1767.5 1268L1076.5 1080C1076.5 1080 1173.06 730.578 1357 655C1459.66 612.819 1536.83 674.642 1640.5 635Z" fill="url(#paint3_linear_17_9)"/>
</g>
<defs>
<linearGradient id="paint0_linear_17_9" x1="960" y1="320" x2="960" y2="1080" gradientUnits="userSpaceOnUse">
<stop offset="0.228626" stop-color="#14532D" stop-opacity="0.92"/>
<stop offset="0.758151" stop-color="#0C4A6E" stop-opacity="0.85"/>
</linearGradient>
<linearGradient id="paint1_linear_17_9" x1="757.5" y1="572" x2="763.5" y2="1537.5" gradientUnits="userSpaceOnUse">
<stop stop-color="#08612A"/>
<stop offset="0.362801" stop-color="#075985"/>
</linearGradient>
<linearGradient id="paint2_linear_17_9" x1="289.482" y1="281.5" x2="272.486" y2="1294.5" gradientUnits="userSpaceOnUse">
<stop offset="0.333333" stop-color="#15803D"/>
<stop offset="0.744792" stop-color="#0369A1"/>
</linearGradient>
<linearGradient id="paint3_linear_17_9" x1="289.482" y1="281.5" x2="272.486" y2="1294.5" gradientUnits="userSpaceOnUse">
<stop offset="0.333333" stop-color="#15803D"/>
<stop offset="0.744792" stop-color="#0369A1"/>
</linearGradient>
<clipPath id="clip0_17_9">
<rect width="1920" height="1080" fill="white"/>
</clipPath>
</defs>
</svg>
